<svg xmlns="http://www.w3.org/2000/svg" viewBox="0 0 1200 650"><style>.b{fill:#fff;stroke:#6672a7;stroke-width:2;rx:18}.t{font:700 20px Arial;fill:#28324b}.s{font:15px Arial;fill:#5d6880}.l{stroke:#7b87b5;stroke-width:3;marker-end:url(#a)}.z{fill:#eef0ff;stroke:#6672a7;stroke-width:2;rx:26}</style><defs><marker id="a" markerWidth="9" markerHeight="9" refX="8" refY="3" orient="auto"><path d="M0,0 L0,6 L9,3 z" fill="#7b87b5"/></marker></defs><rect class="z" x="35" y="55" width="260" height="540"/><text class="t" x="110" y="90">Sede Rivera</text><rect class="b" x="75" y="125" width="180" height="65"/><text class="t" x="120" y="155">Usuarios</text><text class="s" x="102" y="178">VLAN 48 · /22</text><rect class="b" x="75" y="250" width="180" height="72"/><text class="t" x="102" y="280">RIVRUTWAN001</text><text class="s" x="105" y="305">VPN + DHCP relay</text><line class="l" x1="165" y1="190" x2="165" y2="248"/><rect class="b" x="420" y="250" width="180" height="72"/><text class="t" x="485" y="280">ISP</text><text class="s" x="455" y="305">Red simulada</text><line class="l" x1="255" y1="286" x2="418" y2="286"/><rect class="z" x="710" y="55" width="455" height="540"/><text class="t" x="860" y="90">Sede Paysandú</text><rect class="b" x="745" y="245" width="190" height="82"/><text class="t" x="770" y="278">PDURUTWAN001</text><text class="s" x="778" y="305">Servidor L2TP/IPsec</text><line class="l" x1="600" y1="286" x2="743" y2="286"/><rect class="b" x="965" y="245" width="165" height="82"/><text class="t" x="982" y="278">PDUFWLDMZ001</text><text class="s" x="1000" y="305">Firewall + VLAN</text><line class="l" x1="935" y1="286" x2="963" y2="286"/><rect class="b" x="755" y="390" width="150" height="86"/><text class="t" x="785" y="420">AD / DNS</text><text class="s" x="787" y="445">DHCP · LDAP</text><text class="s" x="790" y="465">192.168.80.10</text><rect class="b" x="940" y="390" width="150" height="86"/><text class="t" x="974" y="420">WildFly</text><text class="s" x="963" y="445">Website + API</text><text class="s" x="970" y="465">VLAN 85</text><rect class="b" x="755" y="500" width="150" height="70"/><text class="t" x="790" y="530">Zabbix</text><text class="s" x="781" y="553">192.168.80.20</text><rect class="b" x="940" y="500" width="150" height="70"/><text class="t" x="980" y="530">Oracle</text><text class="s" x="972" y="553">VLAN 90 · 1521</text><line class="l" x1="1048" y1="327" x2="1015" y2="388"/><line class="l" x1="1048" y1="327" x2="830" y2="388"/><line class="l" x1="1015" y1="476" x2="1015" y2="498"/><line class="l" x1="905" y1="433" x2="938" y2="433"/><text class="s" x="365" y="235">Túnel L2TP/IPsec</text></svg>